<?xml version="1.0" standalone="no"?>
<!DOCTYPE svg PUBLIC "-//W3C//DTD SVG 20010904//EN"
 "http://www.w3.org/TR/2001/REC-SVG-20010904/DTD/svg10.dtd">
<svg version="1.0" xmlns="http://www.w3.org/2000/svg"
 width="32.000000pt" height="32.000000pt" viewBox="0 0 32.000000 32.000000"
 preserveAspectRatio="xMidYMid meet">

<g transform="translate(0.000000,32.000000) scale(0.100000,-0.100000)"
fill="#000000" stroke="none">
<path d="M10 305 c-15 -18 -10 -45 13 -59 34 -22 73 27 47 59 -16 19 -44 19
-60 0z m46 -16 c10 -17 -13 -36 -27 -22 -12 12 -4 33 11 33 5 0 12 -5 16 -11z"/>
<path d="M219 283 c-19 -21 -68 -77 -108 -125 -39 -49 -79 -88 -87 -88 -23 0
-28 -29 -9 -50 24 -27 44 -25 54 3 5 13 47 55 93 92 163 134 178 154 140 188
-28 25 -44 21 -83 -20z m75 -6 c9 -14 7 -21 -11 -35 -12 -9 -55 -45 -97 -80
-41 -34 -77 -59 -79 -55 -7 13 147 193 162 190 8 -1 19 -10 25 -20z m-249
-238 c11 -17 -1 -21 -15 -4 -8 9 -8 15 -2 15 6 0 14 -5 17 -11z"/>
</g>
</svg>
