<?xml version="1.0" standalone="no"?>
<!DOCTYPE svg PUBLIC "-//W3C//DTD SVG 20010904//EN"
 "http://www.w3.org/TR/2001/REC-SVG-20010904/DTD/svg10.dtd">
<svg version="1.0" xmlns="http://www.w3.org/2000/svg"
 width="32.000000pt" height="32.000000pt" viewBox="0 0 32.000000 32.000000"
 preserveAspectRatio="xMidYMid meet">

<g transform="translate(0.000000,32.000000) scale(0.100000,-0.100000)"
fill="#000000" stroke="none">
<path d="M95 306 c-101 -44 -125 -178 -46 -257 65 -65 157 -65 222 0 124 124
-15 327 -176 257z m75 -52 c21 -42 21 -47 6 -62 -15 -15 -20 -13 -63 30 l-47
47 34 15 c19 8 38 15 42 16 3 0 16 -21 28 -46z m47 31 l37 -16 -22 -21 c-21
-22 -22 -22 -36 -3 -15 21 -27 55 -20 55 3 0 21 -7 41 -15z m-89 -141 c-15
-15 -20 -15 -62 6 -25 12 -46 24 -46 26 0 3 7 21 15 41 l16 37 47 -47 c43 -43
45 -48 30 -63z m158 71 c7 -19 14 -36 14 -39 0 -7 -34 5 -54 19 -19 14 -19 15
-1 35 10 11 20 20 22 20 2 0 11 -16 19 -35z m-29 -46 c24 -11 43 -23 43 -25 0
-3 -7 -21 -15 -41 l-16 -37 -46 46 c-40 40 -45 49 -34 62 17 20 16 20 68 -5z
m-182 -45 c19 -14 19 -15 -3 -36 l-21 -22 -16 37 c-8 20 -15 38 -15 41 0 7 34
-5 55 -20z m135 -29 l44 -44 -37 -16 c-20 -8 -38 -15 -41 -15 -2 0 -14 20 -26
45 -18 37 -20 48 -10 60 18 21 21 20 70 -30z m-77 -37 c9 -18 14 -34 12 -36
-1 -2 -20 4 -40 13 -37 15 -37 16 -20 35 24 27 30 25 48 -12z"/>
</g>
</svg>
