<?xml version="1.0" standalone="no"?>
<!DOCTYPE svg PUBLIC "-//W3C//DTD SVG 20010904//EN"
 "http://www.w3.org/TR/2001/REC-SVG-20010904/DTD/svg10.dtd">
<svg version="1.0" xmlns="http://www.w3.org/2000/svg"
 width="32.000000pt" height="32.000000pt" viewBox="0 0 32.000000 32.000000"
 preserveAspectRatio="xMidYMid meet">

<g transform="translate(0.000000,32.000000) scale(0.100000,-0.100000)"
fill="#000000" stroke="none">
<path d="M150 307 c0 -16 -108 -72 -132 -69 -16 2 -18 -8 -18 -76 l0 -78 80
-43 80 -42 80 42 80 43 0 78 c0 68 -2 78 -17 76 -25 -3 -133 53 -133 69 0 7
-4 13 -10 13 -5 0 -10 -6 -10 -13z m0 -45 c0 -4 -25 -20 -55 -35 -67 -33 -73
-22 -7 14 52 29 62 33 62 21z m83 -22 c26 -13 47 -28 47 -32 0 -4 -25 4 -55
19 -30 15 -55 31 -55 36 0 5 3 7 8 5 4 -2 28 -14 55 -28z m-33 -22 c22 -13 40
-26 40 -29 0 -10 -54 -33 -80 -34 -23 -1 -80 24 -80 35 0 4 69 48 78 50 2 0
21 -10 42 -22z m-50 -101 c0 -5 -3 -7 -7 -5 -58 27 -103 54 -103 60 0 4 25 -4
55 -19 30 -15 55 -31 55 -36z m129 50 c-19 -16 -103 -56 -107 -52 -3 3 -3 7
-1 9 11 10 105 54 108 50 2 -2 2 -5 0 -7z m-186 -52 c49 -25 57 -33 57 -58 0
-16 -3 -27 -7 -25 -104 49 -123 63 -123 91 0 16 3 27 8 25 4 -2 33 -17 65 -33z
m207 7 c0 -27 -20 -42 -122 -90 -5 -2 -8 9 -8 25 0 24 8 33 58 59 72 40 72 40
72 6z"/>
</g>
</svg>
