<?xml version="1.0" standalone="no"?>
<!DOCTYPE svg PUBLIC "-//W3C//DTD SVG 20010904//EN"
 "http://www.w3.org/TR/2001/REC-SVG-20010904/DTD/svg10.dtd">
<svg version="1.0" xmlns="http://www.w3.org/2000/svg"
 width="32.000000pt" height="32.000000pt" viewBox="0 0 32.000000 32.000000"
 preserveAspectRatio="xMidYMid meet">

<g transform="translate(0.000000,32.000000) scale(0.100000,-0.100000)"
fill="#000000" stroke="none">
<path d="M156 300 c-27 -11 -64 -34 -83 -52 -60 -58 -94 -196 -57 -232 38 -39
176 -4 236 60 58 63 88 192 52 228 -21 22 -87 20 -148 -4z m140 -14 c3 -8 4
-26 2 -41 l-3 -26 -40 40 -39 41 37 0 c23 0 40 -5 43 -14z m-53 -44 c42 -43
47 -52 41 -78 -9 -37 -92 -119 -129 -128 -25 -6 -34 -1 -77 42 -42 41 -48 53
-43 74 13 52 106 137 150 138 6 0 32 -22 58 -48z m-168 -220 c-43 -6 -55 4
-55 45 l0 37 41 -39 40 -40 -26 -3z"/>
<path d="M166 197 c5 -16 2 -18 -16 -12 -19 6 -21 4 -15 -15 6 -18 4 -21 -12
-16 -16 5 -20 1 -20 -22 0 -25 4 -29 29 -29 23 0 27 4 22 20 -5 16 -2 18 16
12 19 -6 21 -4 15 15 -6 18 -4 21 12 16 16 -5 20 -1 20 22 0 25 -4 29 -29 29
-23 0 -27 -4 -22 -20z"/>
</g>
</svg>
