<?xml version="1.0" standalone="no"?>
<!DOCTYPE svg PUBLIC "-//W3C//DTD SVG 20010904//EN"
 "http://www.w3.org/TR/2001/REC-SVG-20010904/DTD/svg10.dtd">
<svg version="1.0" xmlns="http://www.w3.org/2000/svg"
 width="32.000000pt" height="32.000000pt" viewBox="0 0 32.000000 32.000000"
 preserveAspectRatio="xMidYMid meet">

<g transform="translate(0.000000,32.000000) scale(0.100000,-0.100000)"
fill="#000000" stroke="none">
<path d="M187 201 c-85 -117 -88 -120 -129 -123 -48 -3 -70 -27 -52 -55 9 -14
25 -18 75 -18 l63 0 89 139 c68 107 87 144 80 155 -21 34 -40 19 -126 -98z
m113 93 c0 -16 -87 -144 -97 -144 -22 0 -15 17 34 85 41 57 63 78 63 59z
m-107 -169 c1 -5 -6 -11 -15 -13 -11 -2 -18 3 -18 13 0 17 30 18 33 0z m-28
-35 c3 -6 -3 -24 -15 -40 -26 -36 -70 -42 -70 -10 0 11 7 20 15 20 8 0 20 9
27 20 14 22 33 26 43 10z m-105 -50 c0 -21 -24 -28 -35 -10 -8 14 3 30 21 30
8 0 14 -9 14 -20z"/>
<path d="M0 150 c0 -29 1 -30 50 -30 49 0 50 1 50 30 0 29 -1 30 -50 30 -49 0
-50 -1 -50 -30z m80 0 c0 -5 -13 -10 -30 -10 -16 0 -30 5 -30 10 0 6 14 10 30
10 17 0 30 -4 30 -10z"/>
</g>
</svg>
