<?xml version="1.0" standalone="no"?>
<!DOCTYPE svg PUBLIC "-//W3C//DTD SVG 20010904//EN"
 "http://www.w3.org/TR/2001/REC-SVG-20010904/DTD/svg10.dtd">
<svg version="1.0" xmlns="http://www.w3.org/2000/svg"
 width="32.000000pt" height="32.000000pt" viewBox="0 0 32.000000 32.000000"
 preserveAspectRatio="xMidYMid meet">

<g transform="translate(0.000000,32.000000) scale(0.100000,-0.100000)"
fill="#000000" stroke="none">
<path d="M90 298 c-87 -45 -115 -156 -57 -232 66 -86 188 -86 254 0 100 132
-49 308 -197 232z m83 -5 c-7 -2 -19 -2 -25 0 -7 3 -2 5 12 5 14 0 19 -2 13
-5z m-39 -16 c23 -17 18 -45 -14 -69 -51 -38 -92 18 -44 60 29 26 34 26 58 9z
m110 -9 c48 -42 7 -98 -44 -60 -32 24 -37 52 -14 69 24 17 29 17 58 -9z m-54
-77 c21 -17 23 -23 14 -48 -8 -23 -15 -28 -44 -28 -29 0 -36 5 -44 28 -9 25
-7 31 14 48 14 10 27 19 30 19 3 0 16 -9 30 -19z m-114 -19 c6 -4 16 -21 21
-38 13 -37 2 -54 -33 -54 -32 0 -51 56 -28 82 19 20 24 21 40 10z m208 -11
c33 -36 -21 -102 -59 -71 -21 17 7 89 36 90 3 0 13 -8 23 -19z m-77 -87 c3 -9
2 -24 -4 -33 -22 -34 -93 -25 -93 13 0 31 7 36 52 36 27 0 41 -5 45 -16z
m-117 -24 c0 -5 -2 -10 -4 -10 -3 0 -8 5 -11 10 -3 6 -1 10 4 10 6 0 11 -4 11
-10z m160 6 c0 -3 -4 -8 -10 -11 -5 -3 -10 -1 -10 4 0 6 5 11 10 11 6 0 10 -2
10 -4z"/>
</g>
</svg>
