<?xml version="1.0" standalone="no"?>
<!DOCTYPE svg PUBLIC "-//W3C//DTD SVG 20010904//EN"
 "http://www.w3.org/TR/2001/REC-SVG-20010904/DTD/svg10.dtd">
<svg version="1.0" xmlns="http://www.w3.org/2000/svg"
 width="32.000000pt" height="32.000000pt" viewBox="0 0 32.000000 32.000000"
 preserveAspectRatio="xMidYMid meet">

<g transform="translate(0.000000,32.000000) scale(0.100000,-0.100000)"
fill="#000000" stroke="none">
<path d="M64 310 c-53 -21 -75 -97 -49 -165 26 -69 100 -108 161 -85 23 9 31
6 65 -25 43 -38 49 -41 67 -23 18 18 15 24 -22 66 -33 36 -34 40 -24 77 7 29
7 48 -2 70 -11 28 -13 28 -20 10 -5 -11 -39 -50 -77 -88 -67 -66 -69 -67 -92
-51 -28 20 -51 72 -51 114 0 40 47 90 84 90 14 0 26 5 26 10 0 12 -37 12 -66
0z m177 -165 c-9 -34 -7 -39 26 -76 46 -51 35 -62 -16 -16 -36 33 -43 35 -73
26 -63 -18 -62 -9 2 56 36 36 66 61 68 56 2 -5 -1 -26 -7 -46z"/>
<path d="M160 305 c-26 -32 13 -81 48 -59 22 14 27 41 12 59 -16 19 -44 19
-60 0z m46 -16 c10 -17 -13 -36 -27 -22 -12 12 -4 33 11 33 5 0 12 -5 16 -11z"/>
</g>
</svg>
