<?xml version="1.0" standalone="no"?>
<!DOCTYPE svg PUBLIC "-//W3C//DTD SVG 20010904//EN"
 "http://www.w3.org/TR/2001/REC-SVG-20010904/DTD/svg10.dtd">
<svg version="1.0" xmlns="http://www.w3.org/2000/svg"
 width="32.000000pt" height="32.000000pt" viewBox="0 0 32.000000 32.000000"
 preserveAspectRatio="xMidYMid meet">

<g transform="translate(0.000000,32.000000) scale(0.100000,-0.100000)"
fill="#000000" stroke="none">
<path d="M92 304 c-107 -55 -121 -198 -26 -271 96 -73 238 -10 251 111 14 119
-120 214 -225 160z m127 -18 c62 -32 54 -41 -34 -41 -72 -1 -84 2 -88 17 -10
36 69 51 122 24z m-139 -41 c0 -8 16 -33 35 -54 29 -31 34 -45 29 -65 -10 -40
-20 -40 -50 -1 -35 46 -56 106 -42 123 14 16 28 15 28 -3z m178 -26 c48 -16
49 -38 2 -32 -21 3 -53 1 -70 -5 -26 -10 -34 -8 -52 10 -16 16 -18 22 -7 29
19 12 90 11 127 -2z m-199 -75 c13 -25 33 -50 44 -55 18 -10 18 -11 1 -30 -16
-18 -18 -18 -37 -2 -28 26 -47 67 -47 103 0 42 11 38 39 -16z m159 -14 c-14
-53 -67 -114 -91 -104 -17 6 -17 8 2 28 10 11 25 40 31 63 7 23 20 44 29 46
37 10 39 8 29 -33z m80 24 c11 -9 -24 -77 -49 -99 -49 -40 -64 -33 -36 17 14
24 28 56 31 71 6 23 10 27 29 21 12 -3 24 -8 25 -10z"/>
</g>
</svg>
